HIERARCHY
ROOT Hips
{
	OFFSET 0.00000 0.00000 0.00000
	CHANNELS 6 Xposition Yposition Zposition Zrotation Yrotation Xrotation 
	JOINT LHipJoint
	{
		OFFSET 0 0 0
		CHANNELS 3 Zrotation Yrotation Xrotation
		JOINT LeftHip
		{
			OFFSET 1.62964 -1.40469 0.78906
			CHANNELS 3 Zrotation Yrotation Xrotation
			JOINT LeftKnee
			{
				OFFSET 2.29640 -6.30932 0.00000
				CHANNELS 3 Zrotation Yrotation Xrotation
				JOINT LeftAnkle
				{
					OFFSET 2.29451 -6.30412 0.00000
					CHANNELS 3 Zrotation Yrotation Xrotation
					JOINT LeftToe
					{
						OFFSET 0.03611 -0.09921 1.56387
						CHANNELS 3 Zrotation Yrotation Xrotation
						End Site
						{
							OFFSET 0.00000 -0.00000 0.80291
						}
					}
				}
			}
		}
	}
	JOINT RHipJoint
	{
		OFFSET 0 0 0
		CHANNELS 3 Zrotation Yrotation Xrotation
		JOINT RightHip
		{
			OFFSET -1.73712 -1.40469 0.78906
			CHANNELS 3 Zrotation Yrotation Xrotation
			JOINT RightKnee
			{
				OFFSET -2.28137 -6.26801 0.00000
				CHANNELS 3 Zrotation Yrotation Xrotation
				JOINT RightAnkle
				{
					OFFSET -2.28681 -6.28298 0.00000
					CHANNELS 3 Zrotation Yrotation Xrotation
					JOINT RightToe
					{
						OFFSET -0.15927 -0.43759 1.61103
						CHANNELS 3 Zrotation Yrotation Xrotation
						End Site
						{
							OFFSET -0.00000 -0.00000 0.84630
						}
					}
				}
			}
		}
	}
	JOINT lowerback
	{
		OFFSET 0 0 0
		CHANNELS 3 Zrotation Yrotation Xrotation
		JOINT Chest
		{
			OFFSET -0.04227 2.04338 -0.00225
			CHANNELS 3 Zrotation Yrotation Xrotation
			JOINT Chest2
			{
				OFFSET -0.02148 2.04482 -0.04273
				CHANNELS 3 Zrotation Yrotation Xrotation
				JOINT lowerneck
				{
					OFFSET 0 0 0
					CHANNELS 3 Zrotation Yrotation Xrotation
					JOINT Neck
					{
						OFFSET 0.09180 1.44629 0.19359
						CHANNELS 3 Zrotation Yrotation Xrotation
						JOINT Head
						{
							OFFSET 0.00887 1.40645 0.14750
							CHANNELS 3 Zrotation Yrotation Xrotation
							End Site
							{
								OFFSET -0.00669 1.50671 0.03707
							}
						}
					}
				}
				JOINT LeftCollar
				{
					OFFSET 0 0 0
					CHANNELS 3 Zrotation Yrotation Xrotation
					JOINT LeftShoulder
					{
						OFFSET 2.17674 1.86763 -0.06520
CHANNELS 3 Zrotation Xrotation Yrotation
						JOINT LeftElbow
						{
OFFSET 0 -4.657760 0.000000
CHANNELS 3 Zrotation Xrotation Yrotation
							JOINT LeftWrist
							{
OFFSET 0 -3.555390 0.000000
CHANNELS 3 Zrotation Xrotation Yrotation
								JOINT lhand
								{
									OFFSET 0 0 0
CHANNELS 3 Zrotation Xrotation Yrotation
									JOINT LFingers
									{
OFFSET 0 -0.707260 0.000000
CHANNELS 3 Zrotation Xrotation Yrotation
										End Site
										{
OFFSET 0 -0.570220 0.000000
										}
									}
								}
								JOINT LThumb
								{
OFFSET 0 0.000000 0.000000
CHANNELS 3 Zrotation Xrotation Yrotation
									End Site
									{
OFFSET 0 -0.578920 0.578920
									}
								}
							}
						}
					}
				}
				JOINT RightCollar
				{
					OFFSET 0 0 0
					CHANNELS 3 Zrotation Yrotation Xrotation
					JOINT RightShoulder
					{
						OFFSET -2.80694 1.55459 -0.32496
CHANNELS 3 Zrotation Xrotation Yrotation
						JOINT RightElbow
						{
OFFSET 0 -4.719250 -0.000000
CHANNELS 3 Zrotation Xrotation Yrotation
							JOINT RightWrist
							{
OFFSET 0 -3.569900 0.000000
CHANNELS 3 Zrotation Xrotation Yrotation
								JOINT rhand
								{
									OFFSET 0 0 0
CHANNELS 3 Zrotation Xrotation Yrotation
									JOINT RFingers
									{
OFFSET 0 -0.507760 0.000000
CHANNELS 3 Zrotation Xrotation Yrotation
										End Site
										{
OFFSET 0 -0.409370 0.000000
										}
									}
								}
								JOINT RThumb
								{
OFFSET 0 0.000000 0.000000
CHANNELS 3 Zrotation Xrotation Yrotation
									End Site
									{
OFFSET 0 -0.415620 0.415620
									}
								}
							}
						}
					}
				}
			}
		}
	}
}
MOTION
Frames: 12
Frame Time: 0.008333333333333333
9.508690 16.399663 3.321278 177.876518 -1.052924 -161.251883 0.000000 0.000000 0.000000 -9.849012 -21.721898 -67.581572 19.731241 19.998121 89.214314 0.692455 -1.654467 -15.242549 1.418520 -7.531945 -21.301283 0.000000 0.000000 0.000000 20.745637 13.283192 -15.895860 -0.236279 -3.128365 8.636285 -0.867126 1.123811 -17.253459 -2.358679 9.576186 -27.615077 -5.371266 -1.302487 -19.020156 -0.004625 -0.464045 2.997521 2.911363 -0.664757 14.222582 -1.171211 -0.961237 -1.661341 3.690615 -3.336176 19.060275 1.116160 -1.982802 6.113820 0.000000 0.000000 0.000000 5.515685 1.245522 -16.010041 10.313590 -17.228334 1.566742 20.840933 3.267635 12.244197 0.000000 0.000000 0.000000 -7.125000 0.000000 0.000000 -4.435740 16.931833 -2.960615 0.000000 0.000000 0.000000 -1.385602 2.008972 11.219373 -25.416898 -36.626978 -8.537400 -11.141908 5.579497 55.868471 0.000000 0.000000 0.000000 7.125000 0.000000 0.000000 78.364650 75.969865 -63.872258
9.511188 16.403952 3.229446 177.852728 -0.823277 -161.153805 0.000000 0.000000 0.000000 -9.070046 -21.879601 -69.439551 19.352132 19.989342 88.105334 0.734541 -1.328408 -15.795339 1.503462 -7.744586 -21.941017 0.000000 0.000000 0.000000 20.745848 13.530078 -15.566497 -0.235322 -3.121762 8.617845 -0.894320 1.043852 -17.550837 -2.432816 9.714039 -28.056261 -5.403650 -1.219240 -18.952058 -0.074713 -0.341844 2.982894 2.888107 -0.606233 14.152588 -1.734266 -0.965132 -2.380646 4.125492 -3.519417 20.104009 1.322494 -2.093112 6.590992 0.000000 0.000000 0.000000 5.513361 1.647549 -14.842464 9.925065 -16.622161 1.453519 21.342229 4.098398 12.728000 0.000000 0.000000 0.000000 -7.125000 0.000000 0.000000 -4.105434 16.371090 -2.788550 0.000000 0.000000 0.000000 -1.613510 1.547247 11.828364 -25.586166 -36.797103 -8.638646 -11.306501 5.164144 54.414759 0.000000 0.000000 0.000000 7.125000 0.000000 0.000000 72.539051 75.816329 -58.114681
9.504395 16.400666 3.125304 177.871396 -0.697867 -161.051157 0.000000 0.000000 0.000000 -8.420587 -22.042166 -70.802298 18.769927 19.963530 86.401490 0.764391 -1.087526 -16.185682 1.442357 -7.592486 -21.483106 0.000000 0.000000 0.000000 20.853830 13.370488 -15.189242 -0.227460 -3.069666 8.472671 -0.933937 1.298720 -17.873242 -2.528972 9.890407 -28.622552 -5.268469 -1.104879 -19.111054 -0.159668 -0.196607 3.072946 2.759082 -0.530468 14.337927 -1.775265 -0.956149 -2.082522 4.168459 -3.428615 19.579590 1.356134 -2.037684 6.369133 0.000000 0.000000 0.000000 5.556803 1.941498 -14.183150 9.679832 -16.237223 1.384062 21.847189 4.369981 13.230850 0.000000 0.000000 0.000000 -7.125000 0.000000 0.000000 -3.777506 15.785966 -2.613009 0.000000 0.000000 0.000000 -1.734565 1.017353 12.369688 -25.791141 -37.001667 -8.761694 -12.186247 5.439445 54.634082 0.000000 0.000000 0.000000 7.125000 0.000000 0.000000 73.189345 76.189839 -59.143623
9.504635 16.397814 3.026520 177.717790 -0.555673 -161.107928 0.000000 0.000000 0.000000 -8.055394 -22.169734 -71.841167 18.145555 19.916441 84.570617 0.779404 -0.714748 -16.456418 1.557956 -7.876622 -22.340262 0.000000 0.000000 0.000000 20.765305 13.438220 -14.782050 -0.239049 -3.146433 8.686738 -0.985094 1.299446 -18.368362 -2.465946 9.775581 -28.253175 -5.426864 -1.045261 -18.895281 -0.290186 -0.074933 3.141605 2.737976 -0.481434 14.280185 -1.580486 -0.998904 -1.950209 3.813955 -3.408721 19.404297 1.214688 -2.034619 6.282112 0.000000 0.000000 0.000000 5.597458 2.240976 -13.198961 9.389653 -15.779060 1.304217 22.176441 4.967698 13.690596 0.000000 0.000000 0.000000 -7.125000 0.000000 0.000000 -3.573024 15.261116 -2.511512 0.000000 0.000000 0.000000 -1.882987 0.474823 13.080328 -25.937598 -37.147013 -8.849963 -11.266357 4.765953 57.762576 0.000000 0.000000 0.000000 7.125000 0.000000 0.000000 86.021567 76.043365 -71.586331
9.504926 16.395454 2.925770 177.589718 -0.315002 -161.117124 0.000000 0.000000 0.000000 -7.722520 -22.156687 -72.751796 17.447004 19.842420 82.516504 0.786183 -0.524708 -16.586928 1.603998 -7.987341 -22.675578 0.000000 0.000000 0.000000 20.675518 13.668453 -14.300970 -0.243792 -3.177261 8.772537 -1.024536 1.198897 -18.768846 -2.356250 9.571663 -27.600503 -5.598041 -0.936673 -18.788768 -0.433938 0.119512 3.137646 2.731490 -0.398368 14.195114 -1.700062 -1.090976 -2.261438 3.857127 -3.677213 20.247774 1.221056 -2.193023 6.616778 0.000000 0.000000 0.000000 5.652693 2.538421 -11.831970 9.021903 -15.195261 1.205831 21.511213 6.514084 12.881636 0.000000 0.000000 0.000000 -7.125000 0.000000 0.000000 -3.994463 16.191449 -2.728716 0.000000 0.000000 0.000000 -2.068999 0.133302 13.726299 -26.044927 -37.253065 -8.914803 -12.305540 5.180265 55.812221 0.000000 0.000000 0.000000 7.125000 0.000000 0.000000 78.021994 76.395511 -64.011017
9.501182 16.390587 2.821577 177.549496 -0.355156 -161.092015 0.000000 0.000000 0.000000 -7.276964 -22.379901 -73.391554 16.654365 19.728126 80.174888 0.800301 -0.677216 -16.690150 1.385819 -7.439858 -21.029221 0.000000 0.000000 0.000000 20.770963 13.480449 -13.882073 -0.246223 -3.193289 8.817332 -1.080958 1.467903 -19.217755 -2.326681 9.515661 -27.422236 -5.626139 -0.922361 -18.626768 -0.480149 0.139784 3.153423 2.700686 -0.387223 14.115002 -1.498692 -1.058679 -1.990533 3.562452 -3.514616 19.772290 1.110867 -2.109598 6.404485 0.000000 0.000000 0.000000 5.675513 2.910512 -11.363874 8.813261 -14.862297 1.151779 21.332162 6.728786 12.575085 0.000000 0.000000 0.000000 -7.125000 0.000000 0.000000 -4.106259 16.534781 -2.774993 0.000000 0.000000 0.000000 -2.232944 -0.544329 14.206597 -25.882247 -37.092096 -8.816542 -11.805385 4.881867 55.172299 0.000000 0.000000 0.000000 7.125000 0.000000 0.000000 75.450082 76.134001 -61.237012
9.497785 16.383165 2.711762 177.473165 -0.121194 -161.099746 0.000000 0.000000 0.000000 -6.967312 -22.319630 -73.801238 15.784758 19.566908 77.588739 0.790505 -1.109630 -16.460773 0.880415 -5.981328 -16.730479 0.000000 0.000000 0.000000 20.778831 13.593141 -13.568971 -0.268037 -3.330181 9.199431 -1.146871 1.503765 -19.799835 -2.430894 9.710943 -28.045868 -5.759280 -0.799858 -18.660385 -0.554821 0.352027 3.277754 2.755910 -0.304262 14.263778 -1.744064 -1.017886 -2.155120 3.826427 -3.454254 19.714179 1.239110 -2.066798 6.420314 0.000000 0.000000 0.000000 5.699243 2.892563 -10.405227 8.488313 -14.341203 1.069913 21.301692 7.507322 12.541590 0.000000 0.000000 0.000000 -7.125000 0.000000 0.000000 -4.126200 16.573195 -2.784907 0.000000 0.000000 0.000000 -2.290413 -1.155252 14.610042 -26.034883 -37.242927 -8.908821 -12.001583 5.189415 55.265094 0.000000 0.000000 0.000000 7.125000 0.000000 0.000000 75.794955 76.220066 -61.663894
9.492757 16.378864 2.609012 177.194070 0.009252 -161.035105 0.000000 0.000000 0.000000 -6.967943 -22.442099 -74.101518 14.969270 19.381293 75.143485 0.749704 -1.195573 -15.996687 1.297191 -7.192114 -20.295658 0.000000 0.000000 0.000000 20.479700 13.735755 -13.152066 -0.278068 -3.391568 9.370880 -1.217781 1.446741 -20.434985 -2.235116 9.338559 -26.860943 -6.043268 -0.694941 -18.652727 -0.723082 0.579608 3.353260 2.794537 -0.220805 14.329330 -1.606812 -1.057310 -2.306453 3.607257 -3.489359 19.884843 1.141406 -2.086789 6.496943 0.000000 0.000000 0.000000 5.711859 2.861308 -9.050681 8.282446 -14.009649 1.019393 20.815066 8.926139 12.061641 0.000000 0.000000 0.000000 -7.125000 0.000000 0.000000 -4.448098 17.127353 -2.949606 0.000000 0.000000 0.000000 -2.298233 -1.598624 15.014956 -26.274569 -37.478533 -9.054253 -11.760571 5.040384 55.581681 0.000000 0.000000 0.000000 7.125000 0.000000 0.000000 77.123697 76.170928 -62.889140
9.486077 16.374125 2.500572 177.086361 0.085855 -161.070177 0.000000 0.000000 0.000000 -6.874677 -22.544653 -74.134838 14.198325 19.171201 72.807742 0.702760 -0.914391 -15.553201 1.901659 -8.656791 -24.728446 0.000000 0.000000 0.000000 20.426387 13.506954 -12.661431 -0.273690 -3.365097 9.296947 -1.243658 1.293078 -20.698497 -2.171609 9.214648 -26.469263 -6.127488 -0.596310 -18.545964 -0.855773 0.740024 3.417661 2.738867 -0.150185 14.327687 -1.516199 -1.096848 -2.124070 3.536127 -3.522042 19.729108 1.104893 -2.100859 6.413877 0.000000 0.000000 0.000000 5.832711 3.133937 -8.958289 8.255296 -13.965835 1.012850 20.653469 8.925890 11.947117 0.000000 0.000000 0.000000 -7.125000 0.000000 0.000000 -4.557156 17.263126 -3.009127 0.000000 0.000000 0.000000 -2.366045 -1.912699 15.634757 -26.423775 -37.623903 -9.145208 -11.563245 4.938699 55.488506 0.000000 0.000000 0.000000 7.125000 0.000000 0.000000 76.772450 76.086609 -62.455658
9.476800 16.362675 2.385961 177.000760 0.276190 -161.091090 0.000000 0.000000 0.000000 -6.813923 -22.521913 -74.031729 13.408385 18.924706 70.389221 0.652071 -1.203434 -14.891330 1.852699 -8.552173 -24.404250 0.000000 0.000000 0.000000 20.365702 13.438188 -12.128584 -0.265208 -3.312948 9.151234 -1.279189 1.700616 -20.891092 -2.062441 8.994972 -25.779776 -6.223717 -0.546480 -18.398375 -0.944984 0.825228 3.404022 2.716387 -0.112277 14.215379 -1.780986 -1.126712 -2.573441 3.656730 -3.684157 20.546598 1.165162 -2.205771 6.765391 0.000000 0.000000 0.000000 5.816624 3.500496 -8.322930 8.146430 -13.789927 0.986773 20.417027 9.137251 11.931757 0.000000 0.000000 0.000000 -7.125000 0.000000 0.000000 -4.721645 17.300067 -3.114590 0.000000 0.000000 0.000000 -2.539107 -2.014976 16.687830 -26.772350 -37.961240 -9.358754 -11.702195 4.856938 55.768875 0.000000 0.000000 0.000000 7.125000 0.000000 0.000000 77.895207 76.169510 -63.635243
9.474469 16.351163 2.270245 177.005326 0.407122 -161.111008 0.000000 0.000000 0.000000 -6.748305 -22.405697 -73.790187 12.735566 18.683237 68.300708 0.590661 -1.275445 -14.134120 2.257163 -9.382320 -26.998662 0.000000 0.000000 0.000000 20.452245 13.580568 -11.705514 -0.282066 -3.414945 9.436274 -1.341341 1.684895 -21.410005 -2.083010 9.036001 -25.908689 -6.345807 -0.510478 -18.235216 -0.963749 0.890160 3.406727 2.782116 -0.088986 14.114038 -1.873370 -0.871612 -1.624225 3.691453 -3.166550 19.299968 1.244571 -1.944063 6.186359 0.000000 0.000000 0.000000 5.754355 3.515614 -6.429612 7.792127 -13.215276 0.904043 20.471780 10.341162 12.494207 0.000000 0.000000 0.000000 -7.125000 0.000000 0.000000 -4.700306 16.701101 -3.161992 0.000000 0.000000 0.000000 -2.724251 -2.344376 17.587535 -26.889241 -38.073335 -9.430744 -9.490085 2.923185 58.022733 0.000000 0.000000 0.000000 7.125000 0.000000 0.000000 86.858457 75.423956 -71.748779
9.465155 16.339383 2.150862 177.154381 0.454277 -160.975321 0.000000 0.000000 0.000000 -6.506382 -22.333776 -73.641970 12.103534 18.433596 66.316086 0.534251 -1.457214 -13.381374 2.084903 -9.037765 -25.915510 0.000000 0.000000 0.000000 20.651416 13.380948 -11.656374 -0.302873 -3.538656 9.782327 -1.407185 2.055005 -21.853232 -2.086604 9.043620 -25.932181 -6.230176 -0.447727 -18.365267 -0.968460 0.964902 3.506279 2.734685 -0.052338 14.303744 -2.178004 -0.951031 -2.170565 3.919282 -3.310649 19.681417 1.352210 -2.010309 6.414302 0.000000 0.000000 0.000000 5.725179 3.696578 -6.214162 7.895788 -13.383821 0.927901 20.376124 10.183478 12.668067 0.000000 0.000000 0.000000 -7.125000 0.000000 0.000000 -4.771877 16.526368 -3.228709 0.000000 0.000000 0.000000 -2.752263 -2.797235 18.312715 -27.231134 -38.398511 -9.642444 -12.508880 4.772307 54.463980 0.000000 0.000000 0.000000 7.125000 0.000000 0.000000 72.396167 76.240787 -58.500649
